<svg xmlns="http://www.w3.org/2000/svg" style="display: none;">
  <defs>
  <symbol id="icon-heart-outline" viewBox="0 0 24 24">
      <path d="M12 21.35l-1.45-1.32C5.4 15.36 2 12.28 2 8.5 2 5.42 4.42 3 7.5 3c1.74 0 3.41.81 4.5 2.09C13.09 3.81 14.76 3 16.5 3 19.58 3 22 5.42 22 8.5c0 3.78-3.4 6.86-8.55 11.54L12 21.35z" fill="none" stroke="currentColor" stroke-width="2"/>
    </symbol>

    <symbol id="icon-heart-filled" viewBox="0 0 24 24">
      <path d="M12 21.35l-1.45-1.32C5.4 15.36 2 12.28 2 8.5 2 5.42 4.42 3 7.5 3c1.74 0 3.41.81 4.5 2.09C13.09 3.81 14.76 3 16.5 3 19.58 3 22 5.42 22 8.5c0 3.78-3.4 6.86-8.55 11.54L12 21.35z" fill="currentColor"/>
    </symbol>

    <symbol id="icon-chevron-down" viewBox="0 0 16 16">
      <path d="m4 6 4 4 4-4" stroke="currentColor" stroke-width="1.5" stroke-linecap="round" stroke-linejoin="round" fill="none"/>
    </symbol>

    <symbol id="icon-chevron-up" viewBox="0 0 16 16">
      <path d="m12 10-4-4-4 4" stroke="currentColor" stroke-width="1.5" stroke-linecap="round" stroke-linejoin="round" fill="none"/>
    </symbol>

    <symbol id="icon-location" viewBox="0 0 16 16">
      <path d="M14 6.667c0 4.666-6 8.666-6 8.666s-6-4-6-8.666a6 6 0 1 1 12 0Z" stroke="currentColor" stroke-width="1.5" stroke-linecap="round" stroke-linejoin="round" fill="none"/>
      <path d="M8 8.667a2 2 0 1 0 0-4 2 2 0 0 0 0 4Z" stroke="currentColor" stroke-width="1.5" stroke-linecap="round" stroke-linejoin="round" fill="none"/>
    </symbol>

    <symbol id="icon-calendar" viewBox="0 0 16 16">
      <path d="M12.667 2.667H3.333A1.333 1.333 0 0 0 2 4v9.333A1.333 1.333 0 0 0 3.333 14.667h9.334A1.333 1.333 0 0 0 14 13.333V4a1.333 1.333 0 0 0-1.333-1.333ZM10.667 1.333V4M5.333 1.333V4M2 6.667h12" stroke="currentColor" stroke-width="1.5" stroke-linecap="round" stroke-linejoin="round" fill="none"/>
    </symbol>

    <symbol id="icon-car" viewBox="0 0 16 16">
      <path d="M13.333 9.333H2.667V5.333c0-.736.6-1.333 1.333-1.333h8c.733 0 1.333.597 1.333 1.333v4ZM2.667 9.333l-.887 2.214a.667.667 0 0 0 .62.92h11.2a.667.667 0 0 0 .62-.92l-.887-2.214M4.667 12.467v1.533M11.333 12.467v1.533" stroke="currentColor" stroke-width="1.5" stroke-linecap="round" stroke-linejoin="round" fill="none"/>
    </symbol>

    <symbol id="icon-fuel-pump" viewBox="0 0 16 16">
      <path d="M12 4.667V14M2.667 14h9.333M2.667 4v10a1.333 1.333 0 0 0 1.333 1.333h6.667A1.333 1.333 0 0 0 12 14V4a1.333 1.333 0 0 0-1.333-1.333H4A1.333 1.333 0 0 0 2.667 4ZM9.333 6H5.333v2.667h4V6ZM12 6.667h1.333a1.333 1.333 0 0 1 1.334 1.333v2" stroke="currentColor" stroke-width="1.5" stroke-linecap="round" stroke-linejoin="round" fill="none"/>
    </symbol>

    <symbol id="icon-gear" viewBox="0 0 16 16">
      <path d="M8 10a2 2 0 1 0 0-4 2 2 0 0 0 0 4ZM2.827 6.133a6.626 6.626 0 0 1 .506-1.22l-1.14-.653a.333.333 0 0 1-.12-.454l1-1.733a.333.333 0 0 1 .454-.12l1.14.653c.36-.313.774-.58 1.22-.787V.5a.333.333 0 0 1 .333-.333h2a.333.333 0 0 1 .333.333V1.82c.447.207.86.474 1.22.787l1.14-.654a.333.333 0 0 1 .454.12l1 1.733a.333.333 0 0 1-.12.454l-1.14.653c.193.393.36.807.506 1.22H15.5a.333.333 0 0 1 .333.334v2a.333.333 0 0 1-.333.333h-1.32c-.146.413-.313.827-.506 1.22l1.14.654a.333.333 0 0 1 .12.453l-1 1.733a.333.333 0 0 1-.454.12l-1.14-.653c-.36.313-.774.58-1.22.787V15.5a.333.333 0 0 1-.333.333h-2a.333.333 0 0 1-.333-.333v-1.32c-.447-.207-.86-.474-1.22-.787l-1.14.653a.333.333 0 0 1-.454-.12l-1-1.733a.333.333 0 0 1 .12-.454l1.14-.653c-.193-.393-.36-.827-.506-1.22H.5a.333.333 0 0 1-.333-.333v-2a.333.333 0 0 1 .333-.334h1.327Z" stroke="currentColor" stroke-width="1.5" stroke-linecap="round" stroke-linejoin="round" fill="none"/>
    </symbol>

    <symbol id="icon-check-circle" viewBox="0 0 16 16">
      <path d="M14.667 8A6.667 6.667 0 1 1 8 1.333 6.667 6.667 0 0 1 14.667 8Z" stroke="currentColor" stroke-width="1.5" stroke-linecap="round" stroke-linejoin="round" fill="none"/>
      <path d="m6 8 1.333 1.333 2.667-2.666" stroke="currentColor" stroke-width="1.5" stroke-linecap="round" stroke-linejoin="round" fill="none"/>
    </symbol>
  </defs>
</svg>